<mxfile host="app.diagrams.net" modified="2021-12-03T08:20:08.612Z" agent="5.0 (Windows NT 10.0; WOW64) AppleWebKit/537.36 (KHTML, like Gecko) Chrome/88.0.4324.104 Safari/537.36" etag="TD6ZL0oydGBKjLTAPoTY" version="15.8.9" type="github">
  <diagram id="S7dFs4I7UZlk7bnEBjo1" name="Page-1">
    <mxGraphModel dx="1321" dy="789" grid="1" gridSize="10" guides="1" tooltips="1" connect="1" arrows="1" fold="1" page="1" pageScale="1" pageWidth="850" pageHeight="1100" math="0" shadow="0">
      <root>
        <mxCell id="0" />
        <mxCell id="1" parent="0" />
      </root>
    </mxGraphModel>
  </diagram>
</mxfile>
